<svg xmlns="http://www.w3.org/2000/svg" width="512pt" fill="#0072ee" height="512pt" version="1"
    viewBox="0 0 512.000000 512.000000">
    <path
        d="M207.5 33.6c-47.4 4.6-85.4 19.1-120.8 46.1-45.7 35-76.2 88.1-84.8 147.8-1.7 11.8-1.7 45.5 0 57 2.1 14.4 5.9 30.8 10.2 43.3 3.7 10.7 14.6 34.5 20 43.3l2.1 3.6-11.7 30.4c-6.6 16.9-12 32.4-12.2 34.9-.5 5.7 2 10.7 6.7 13.5 3.4 1.9 5.2 2 55.5 2.2l52 .1 7.5 3.5c16.9 7.9 40.8 14.7 62.5 17.8 11.6 1.7 45.4 1.7 57 .1 21.2-3 43.4-9.2 61.7-17.3l9.3-4.1 51.5-.1c57.3-.2 55.8-.1 60-7 3.7-6 2.9-9.5-10-42.8l-11.9-31.1 6.6-11.9 6.6-11.9 4.1 6.2c4.8 7.4 8.8 9.4 16 8.4 8.6-1.3 5.2 5.5 47.5-94.6 8.3-19.5 15.8-36.9 16.7-38.5 2.5-4.7 2.9-12.4.7-16.5-3-5.8-6.3-6.7-37.9-10.5-15.9-2-29.8-3.7-31-4-1.6-.4-2.6-2.1-4.3-8.2-3.4-11.8-10.6-29.7-16.2-40.3C387.1 89.4 326.8 46.3 256 35.6c-10.1-1.6-40.3-2.8-48.5-2zm85.8 71.6c10.3 26.6 26.7 69.2 36.6 94.8 9.9 25.5 17.8 46.7 17.5 47.1-.2.4-5.4 3.6-11.6 7.1-19.3 11.1-51.1 29.4-55.1 31.8-2.1 1.2-3.9 2.1-4.1 1.9-.1-.2-4.4-11.9-9.4-25.9-5-14-17-47.1-26.6-73.5-16.4-45.2-17.5-47.8-18.6-45-11 28.3-62.9 173.9-63 176.6 0 .4 14-7.4 31.2-17.3 17.1-10 31.8-18.1 32.6-18.2.8-.1 5.7 7.3 11.8 17.9 5.7 9.9 10.8 17.9 11.2 17.8.4-.1 16-9 34.7-19.9 18.7-10.8 48.4-28 66-38.1 17.6-10.2 32.1-18.6 32.3-18.8.2-.2-4.6-8.9-10.7-19.4-6-10.5-10.7-19.1-10.4-19.1.3 0 13.5 1.6 29.2 3.5 15.7 2 35.8 4.4 44.6 5.5 48.8 5.9 67 8.2 67.4 8.6.2.2 0 .9-.6 1.6-.5.7-13.1 30-27.9 65-14.8 35.1-27.1 63.7-27.4 63.8-.3 0-5.4-8.5-11.4-19l-10.9-18.9-4.1 2.4c-75 43.6-199.5 115.5-200.9 116.1-.8.3-5.1-6.3-11.6-17.6-5.7-9.9-10.7-18-11.2-18-.4 0-17.9 9.9-38.9 22l-38.1 22H69.4c-36.9 0-46.5-.3-46.1-1.3.6-1.4 4.4-11.2 72.2-186.7 27.3-70.7 55.5-143.9 62.8-162.8L171.5 57h103.2l18.6 48.2zm96.5 250c1.1 2.9 5.2 13.4 9 23.3 16.5 42.3 24.2 62.4 24.2 63 0 .3-21 .4-46.7.3l-46.8-.3-8.8-23.5c-4.8-12.9-8.6-23.9-8.3-24.5.2-.5 3.2-2.6 6.7-4.6 8.7-4.8 59.7-34.2 64-36.8 1.9-1.2 3.7-2.1 4.1-2.1.4 0 1.5 2.4 2.6 5.2z" />
</svg>